<?xml version="1.0" encoding="UTF-8"?><svg id="Layer_2" xmlns="http://www.w3.org/2000/svg" viewBox="0 0 262.343 26.298"><g id="Layer_1-2"><g><g><path d="m34.067,25.999l-5.52-9.475h-3.657v9.475h-3.025V2.826h7.48c1.751,0,3.23.299,4.438.898,1.208.598,2.111,1.408,2.71,2.427.599,1.02.897,2.184.897,3.491,0,1.596-.46,3.004-1.38,4.223-.92,1.219-2.3,2.028-4.139,2.427l5.817,9.708h-3.623Zm-9.177-11.902h4.455c1.641,0,2.87-.404,3.69-1.213.82-.809,1.23-1.889,1.23-3.242,0-1.374-.404-2.438-1.214-3.191-.809-.753-2.044-1.13-3.707-1.13h-4.455v8.777Z" style="fill:#231f20;"/><path d="m44.489,25.134c-1.386-.776-2.472-1.878-3.259-3.308-.786-1.43-1.18-3.086-1.18-4.97,0-1.862.404-3.508,1.214-4.937.809-1.43,1.911-2.527,3.308-3.292s2.959-1.147,4.688-1.147,3.292.382,4.688,1.147c1.396.765,2.499,1.856,3.309,3.275.809,1.418,1.213,3.07,1.213,4.954s-.415,3.541-1.246,4.97-1.957,2.532-3.375,3.308-2.992,1.164-4.721,1.164c-1.707,0-3.253-.388-4.638-1.164Zm7.696-2.261c.953-.51,1.723-1.274,2.311-2.294.587-1.02.881-2.261.881-3.724s-.288-2.704-.864-3.724-1.33-1.779-2.261-2.277c-.931-.499-1.939-.748-3.025-.748-1.108,0-2.122.249-3.042.748-.92.499-1.657,1.258-2.211,2.277s-.831,2.261-.831,3.724c0,1.485.271,2.737.814,3.757s1.269,1.778,2.178,2.277c.908.499,1.906.748,2.992.748s2.105-.255,3.059-.765Z" style="fill:#231f20;"/><path d="m67.894,8.511c1.197-.687,2.56-1.03,4.089-1.03,1.641,0,3.114.388,4.422,1.164s2.339,1.867,3.092,3.275c.754,1.408,1.131,3.042,1.131,4.904,0,1.84-.377,3.48-1.131,4.92-.753,1.441-1.79,2.56-3.108,3.358-1.318.798-2.787,1.197-4.405,1.197-1.573,0-2.953-.343-4.139-1.031-1.186-.687-2.078-1.562-2.677-2.626v3.358h-3.025V1.396h3.025v9.774c.621-1.086,1.529-1.973,2.727-2.66Zm8.811,4.721c-.555-1.019-1.303-1.795-2.244-2.327-.942-.532-1.979-.798-3.108-.798-1.109,0-2.134.271-3.075.814-.942.543-1.696,1.33-2.261,2.36-.565,1.031-.849,2.222-.849,3.574,0,1.375.283,2.577.849,3.607.564,1.031,1.318,1.818,2.261,2.361.941.543,1.966.814,3.075.814,1.13,0,2.166-.271,3.108-.814.941-.543,1.689-1.33,2.244-2.361.554-1.03.831-2.244.831-3.64,0-1.374-.277-2.571-.831-3.591Z" style="fill:#231f20;"/><path d="m84.325,4.222c-.399-.399-.599-.886-.599-1.463s.199-1.064.599-1.463c.398-.399.886-.598,1.462-.598.555,0,1.025.199,1.413.598s.582.887.582,1.463-.194,1.064-.582,1.463-.858.599-1.413.599c-.576,0-1.063-.2-1.462-.599Zm2.925,3.558v18.219h-3.025V7.78h3.025Z" style="fill:#231f20;"/><path d="m106.289,9.458c1.374,1.341,2.062,3.275,2.062,5.801v10.739h-2.992v-10.306c0-1.817-.454-3.208-1.363-4.173-.909-.964-2.149-1.446-3.724-1.446-1.596,0-2.864.499-3.807,1.496-.942.997-1.413,2.449-1.413,4.355v10.074h-3.025V7.78h3.025v2.593c.599-.931,1.413-1.651,2.444-2.161,1.03-.51,2.166-.765,3.407-.765,2.216,0,4.012.67,5.386,2.011Z" style="fill:#231f20;"/><path d="m135.695,14.412c-1.318,1.275-3.33,1.912-6.034,1.912h-4.455v9.675h-3.025V2.826h7.48c2.615,0,4.604.632,5.968,1.895,1.363,1.264,2.045,2.893,2.045,4.887,0,1.929-.66,3.53-1.979,4.804Zm-2.311-1.679c.798-.731,1.197-1.773,1.197-3.125,0-2.859-1.641-4.289-4.921-4.289h-4.455v8.511h4.455c1.685,0,2.926-.366,3.724-1.097Z" style="fill:#231f20;"/><path d="m140.741,11.919c.754-1.408,1.79-2.499,3.109-3.275,1.318-.776,2.786-1.164,4.404-1.164,1.597,0,2.981.344,4.156,1.03,1.175.688,2.05,1.552,2.626,2.593v-3.324h3.059v18.219h-3.059v-3.391c-.598,1.064-1.49,1.945-2.676,2.643-1.187.698-2.565,1.047-4.14,1.047-1.618,0-3.081-.399-4.388-1.197-1.309-.798-2.339-1.917-3.093-3.358-.753-1.44-1.13-3.081-1.13-4.92,0-1.862.377-3.496,1.13-4.904Zm13.465,1.346c-.554-1.019-1.302-1.8-2.244-2.344-.942-.543-1.978-.814-3.108-.814s-2.161.266-3.092.798c-.931.532-1.674,1.308-2.228,2.327-.554,1.02-.831,2.217-.831,3.591,0,1.396.277,2.61.831,3.64.554,1.031,1.297,1.818,2.228,2.361s1.962.814,3.092.814,2.166-.271,3.108-.814,1.69-1.33,2.244-2.361c.554-1.03.831-2.232.831-3.607s-.277-2.571-.831-3.591Z" style="fill:#231f20;"/><path d="m165.843,1.396v24.602h-3.025V1.396h3.025Z" style="fill:#231f20;"/><path d="m170.719,11.919c.754-1.408,1.79-2.499,3.109-3.275,1.318-.776,2.786-1.164,4.404-1.164,1.597,0,2.981.344,4.156,1.03,1.175.688,2.05,1.552,2.626,2.593v-3.324h3.059v18.219h-3.059v-3.391c-.598,1.064-1.49,1.945-2.676,2.643-1.187.698-2.565,1.047-4.14,1.047-1.618,0-3.081-.399-4.388-1.197-1.309-.798-2.339-1.917-3.093-3.358-.753-1.44-1.13-3.081-1.13-4.92,0-1.862.377-3.496,1.13-4.904Zm13.465,1.346c-.554-1.019-1.302-1.8-2.244-2.344-.942-.543-1.978-.814-3.108-.814s-2.161.266-3.092.798c-.931.532-1.674,1.308-2.228,2.327-.554,1.02-.831,2.217-.831,3.591,0,1.396.277,2.61.831,3.64.554,1.031,1.297,1.818,2.228,2.361s1.962.814,3.092.814,2.166-.271,3.108-.814,1.69-1.33,2.244-2.361c.554-1.03.831-2.232.831-3.607s-.277-2.571-.831-3.591Z" style="fill:#231f20;"/><path d="m196.465,10.273v10.739c0,.887.188,1.513.565,1.878s1.03.548,1.962.548h2.228v2.56h-2.727c-1.685,0-2.948-.388-3.79-1.164-.843-.775-1.264-2.05-1.264-3.823v-10.739h-2.36v-2.493h2.36V3.191h3.025v4.588h4.755v2.493h-4.755Z" style="fill:#231f20;"/><path d="m203.858,11.919c.754-1.408,1.79-2.499,3.109-3.275,1.318-.776,2.786-1.164,4.404-1.164,1.597,0,2.981.344,4.156,1.03,1.175.688,2.05,1.552,2.626,2.593v-3.324h3.059v18.219h-3.059v-3.391c-.598,1.064-1.49,1.945-2.676,2.643-1.187.698-2.565,1.047-4.14,1.047-1.618,0-3.081-.399-4.388-1.197-1.309-.798-2.339-1.917-3.093-3.358-.753-1.44-1.13-3.081-1.13-4.92,0-1.862.377-3.496,1.13-4.904Zm13.465,1.346c-.554-1.019-1.302-1.8-2.244-2.344-.942-.543-1.978-.814-3.108-.814s-2.161.266-3.092.798c-.931.532-1.674,1.308-2.228,2.327-.554,1.02-.831,2.217-.831,3.591,0,1.396.277,2.61.831,3.64.554,1.031,1.297,1.818,2.228,2.361s1.962.814,3.092.814,2.166-.271,3.108-.814,1.69-1.33,2.244-2.361c.554-1.03.831-2.232.831-3.607s-.277-2.571-.831-3.591Zm-1.529-10.639l-7.081,3.79v-2.261l7.081-4.156v2.626Z" style="fill:#231f20;"/><path d="m228.661,25.583c-1.108-.477-1.983-1.141-2.627-1.995-.643-.853-.997-1.834-1.063-2.942h3.125c.089.909.516,1.651,1.28,2.228.765.577,1.768.864,3.009.864,1.152,0,2.062-.254,2.727-.765.664-.51.997-1.152.997-1.928,0-.798-.354-1.391-1.064-1.779-.709-.388-1.807-.77-3.291-1.147-1.353-.354-2.455-.715-3.308-1.081-.854-.366-1.585-.909-2.194-1.629-.61-.72-.914-1.667-.914-2.843,0-.931.276-1.784.831-2.56.554-.775,1.341-1.391,2.36-1.845,1.019-.454,2.183-.682,3.49-.682,2.017,0,3.646.51,4.888,1.529s1.906,2.416,1.995,4.189h-3.025c-.067-.953-.449-1.717-1.147-2.294-.698-.576-1.635-.864-2.81-.864-1.086,0-1.95.232-2.593.698-.644.466-.964,1.076-.964,1.829,0,.599.193,1.092.581,1.479.388.388.876.698,1.463.931.587.232,1.401.493,2.444.781,1.307.354,2.371.704,3.191,1.047.819.344,1.523.859,2.111,1.546.587.687.892,1.585.914,2.693,0,.997-.277,1.895-.831,2.693-.555.798-1.336,1.424-2.344,1.878-1.009.454-2.167.682-3.475.682-1.396,0-2.648-.239-3.757-.715Zm8.013-22.392l-4.588,2.727-4.622-2.727V.798l4.622,2.826,4.588-2.826v2.394Z" style="fill:#231f20;"/></g><g><path d="m5.062,25.925L0,20.415l5.062-5.511h5.36l-5.087,5.511,5.087,5.51h-5.36Z" style="fill:#231f20;"/><path d="m251.921,14.951h5.36l5.062,5.511-5.062,5.51h-5.36l5.086-5.51-5.086-5.511Z" style="fill:#231f20;"/></g></g></g></svg>