<?xml version="1.0" encoding="UTF-8"?><svg id="Layer_2" xmlns="http://www.w3.org/2000/svg" viewBox="0 0 189.57 19.002"><g id="Layer_1-2"><g><g><path d="m24.617,18.786l-3.988-6.847h-2.643v6.847h-2.187V2.042h5.406c1.265,0,2.334.216,3.207.648.872.433,1.525,1.017,1.958,1.754.432.736.648,1.577.648,2.522,0,1.152-.333,2.17-.997,3.051-.665.881-1.662,1.465-2.991,1.754l4.204,7.015h-2.618Zm-6.631-8.601h3.22c1.185,0,2.073-.292,2.666-.877.593-.584.889-1.365.889-2.342,0-.993-.292-1.762-.876-2.307-.585-.544-1.478-.816-2.679-.816h-3.22v6.342Z" style="fill:#32bdb4;"/><path d="m32.223,18.161c-1.001-.56-1.786-1.357-2.354-2.39-.568-1.033-.853-2.23-.853-3.592,0-1.346.292-2.534.876-3.567.585-1.033,1.382-1.826,2.391-2.379s2.139-.828,3.388-.828,2.378.275,3.388.828c1.009.553,1.805,1.342,2.39,2.366.585,1.025.877,2.219.877,3.58s-.3,2.559-.9,3.592c-.601,1.032-1.414,1.83-2.438,2.39-1.025.562-2.162.841-3.412.841-1.233,0-2.351-.279-3.351-.841Zm5.562-1.633c.688-.369,1.245-.921,1.669-1.658.425-.736.637-1.634.637-2.69s-.208-1.954-.624-2.69c-.417-.737-.961-1.285-1.634-1.646s-1.401-.541-2.187-.541c-.801,0-1.533.181-2.198.541-.664.36-1.197.908-1.598,1.646-.4.736-.601,1.633-.601,2.69,0,1.073.196,1.979.589,2.715s.917,1.285,1.573,1.646c.657.36,1.378.54,2.162.54s1.521-.184,2.211-.552Z" style="fill:#32bdb4;"/><path d="m49.204,6.149c.865-.496,1.851-.744,2.955-.744,1.186,0,2.25.28,3.195.841s1.689,1.349,2.234,2.366c.544,1.017.816,2.198.816,3.543,0,1.33-.272,2.515-.816,3.556-.545,1.041-1.294,1.85-2.246,2.427-.953.576-2.015.864-3.184.864-1.137,0-2.134-.248-2.991-.744-.856-.496-1.501-1.129-1.934-1.898v2.427h-2.187V1.009h2.187v7.062c.448-.784,1.105-1.425,1.97-1.922Zm6.366,3.411c-.4-.736-.94-1.297-1.621-1.682-.681-.384-1.43-.576-2.246-.576-.801,0-1.542.196-2.223.589s-1.225.961-1.634,1.705c-.408.745-.612,1.606-.612,2.583,0,.993.204,1.861.612,2.606.409.745.953,1.313,1.634,1.706s1.422.588,2.223.588c.816,0,1.565-.195,2.246-.588s1.221-.961,1.621-1.706.601-1.621.601-2.631c0-.992-.2-1.857-.601-2.595Z" style="fill:#32bdb4;"/><path d="m61.146,3.051c-.288-.288-.433-.641-.433-1.058s.145-.769.433-1.057.641-.433,1.057-.433c.4,0,.741.145,1.021.433.279.288.42.641.42,1.057s-.141.77-.42,1.058c-.28.288-.621.433-1.021.433-.416,0-.769-.145-1.057-.433Zm2.114,2.57v13.165h-2.187V5.621h2.187Z" style="fill:#32bdb4;"/><path d="m77.089,6.834c.992.97,1.489,2.366,1.489,4.192v7.76h-2.162v-7.447c0-1.313-.329-2.318-.985-3.015-.657-.697-1.554-1.046-2.69-1.046-1.153,0-2.07.36-2.751,1.081s-1.021,1.771-1.021,3.147v7.279h-2.187V5.621h2.187v1.874c.432-.673,1.021-1.193,1.766-1.562.744-.368,1.565-.553,2.462-.553,1.602,0,2.898.484,3.893,1.453Z" style="fill:#32bdb4;"/><path d="m98.338,10.414c-.953.921-2.407,1.381-4.36,1.381h-3.22v6.991h-2.187V2.042h5.406c1.89,0,3.327.456,4.312,1.369.985.913,1.478,2.09,1.478,3.531,0,1.394-.477,2.551-1.429,3.472Zm-1.67-1.214c.576-.528.864-1.28.864-2.258,0-2.066-1.185-3.099-3.555-3.099h-3.22v6.149h3.22c1.217,0,2.113-.264,2.69-.793Z" style="fill:#32bdb4;"/><path d="m102.056,8.612c.545-1.018,1.294-1.806,2.247-2.366.952-.561,2.014-.841,3.183-.841,1.153,0,2.154.248,3.003.744.849.497,1.481,1.121,1.898,1.874v-2.402h2.21v13.165h-2.21v-2.45c-.433.769-1.078,1.405-1.935,1.909-.856.505-1.854.757-2.99.757-1.17,0-2.227-.288-3.172-.864-.945-.577-1.689-1.386-2.234-2.427-.544-1.041-.816-2.226-.816-3.556,0-1.345.272-2.526.816-3.543Zm9.73.973c-.401-.736-.941-1.301-1.622-1.693s-1.43-.589-2.246-.589-1.562.192-2.234.576c-.673.385-1.209.945-1.609,1.682-.4.737-.601,1.603-.601,2.595,0,1.01.2,1.886.601,2.631s.937,1.313,1.609,1.706,1.418.588,2.234.588,1.565-.195,2.246-.588,1.221-.961,1.622-1.706c.399-.745.601-1.613.601-2.606s-.201-1.857-.601-2.595Z" style="fill:#32bdb4;"/><path d="m120.267,1.009v17.777h-2.187V1.009h2.187Z" style="fill:#32bdb4;"/><path d="m123.857,8.612c.544-1.018,1.293-1.806,2.246-2.366s2.014-.841,3.184-.841c1.152,0,2.153.248,3.003.744.849.497,1.48,1.121,1.897,1.874v-2.402h2.21v13.165h-2.21v-2.45c-.433.769-1.077,1.405-1.934,1.909-.857.505-1.854.757-2.991.757-1.169,0-2.227-.288-3.171-.864-.945-.577-1.69-1.386-2.234-2.427-.545-1.041-.816-2.226-.816-3.556,0-1.345.271-2.526.816-3.543Zm9.729.973c-.4-.736-.941-1.301-1.621-1.693-.682-.393-1.43-.589-2.247-.589s-1.562.192-2.233.576c-.673.385-1.21.945-1.61,1.682-.4.737-.601,1.603-.601,2.595,0,1.01.2,1.886.601,2.631s.938,1.313,1.61,1.706c.672.393,1.417.588,2.233.588s1.565-.195,2.247-.588c.68-.393,1.221-.961,1.621-1.706s.601-1.613.601-2.606-.2-1.857-.601-2.595Z" style="fill:#32bdb4;"/><path d="m142.531,7.423v7.76c0,.641.136,1.093.408,1.357.272.264.744.396,1.417.396h1.609v1.85h-1.97c-1.217,0-2.13-.28-2.738-.841-.609-.561-.913-1.481-.913-2.763v-7.76h-1.706v-1.802h1.706v-3.315h2.187v3.315h3.435v1.802h-3.435Z" style="fill:#32bdb4;"/><path d="m147.95,8.612c.545-1.018,1.294-1.806,2.247-2.366.952-.561,2.014-.841,3.183-.841,1.153,0,2.154.248,3.003.744.849.497,1.481,1.121,1.898,1.874v-2.402h2.21v13.165h-2.21v-2.45c-.433.769-1.078,1.405-1.935,1.909-.856.505-1.854.757-2.99.757-1.17,0-2.227-.288-3.172-.864-.945-.577-1.689-1.386-2.234-2.427-.544-1.041-.816-2.226-.816-3.556,0-1.345.272-2.526.816-3.543Zm9.73.973c-.401-.736-.941-1.301-1.622-1.693s-1.43-.589-2.246-.589-1.562.192-2.234.576c-.673.385-1.209.945-1.609,1.682-.4.737-.601,1.603-.601,2.595,0,1.01.2,1.886.601,2.631s.937,1.313,1.609,1.706,1.418.588,2.234.588,1.565-.195,2.246-.588,1.221-.961,1.622-1.706c.399-.745.601-1.613.601-2.606s-.201-1.857-.601-2.595Zm-1.105-7.688l-5.117,2.738v-1.633l5.117-3.003v1.897Z" style="fill:#32bdb4;"/><path d="m165.939,18.485c-.802-.344-1.434-.824-1.898-1.441-.465-.616-.721-1.324-.769-2.126h2.258c.064.657.373,1.193.926,1.61.552.416,1.276.624,2.174.624.832,0,1.489-.184,1.97-.553.48-.368.721-.832.721-1.393,0-.577-.256-1.005-.769-1.286-.513-.279-1.306-.556-2.379-.828-.977-.256-1.773-.517-2.39-.781-.617-.264-1.146-.656-1.586-1.177s-.66-1.205-.66-2.055c0-.672.199-1.289.601-1.85.399-.561.969-1.005,1.705-1.333s1.577-.492,2.522-.492c1.457,0,2.635.368,3.532,1.104.896.737,1.377,1.746,1.441,3.027h-2.187c-.048-.688-.324-1.241-.829-1.658-.504-.416-1.181-.624-2.03-.624-.784,0-1.409.168-1.873.504-.465.337-.697.777-.697,1.321,0,.433.141.789.421,1.069.279.28.632.505,1.057.673.424.168,1.013.356,1.766.564.945.257,1.714.509,2.307.757.592.248,1.101.621,1.525,1.117.424.496.645,1.146.661,1.946,0,.721-.201,1.369-.601,1.945-.401.577-.966,1.029-1.694,1.357s-1.565.492-2.511.492c-1.009,0-1.914-.172-2.714-.517Zm5.789-16.18l-3.315,1.97-3.339-1.97V.576l3.339,2.042,3.315-2.042v1.729Z" style="fill:#32bdb4;"/></g><g><path d="m3.658,18.733l-3.658-3.982,3.658-3.981h3.874l-3.676,3.981,3.676,3.982h-3.874Z" style="fill:#32bdb4;"/><path d="m182.039,10.803h3.873l3.658,3.981-3.658,3.982h-3.873l3.675-3.982-3.675-3.981Z" style="fill:#32bdb4;"/></g></g></g></svg>